<svg width="60" height="60" viewBox="0 0 60 60" fill="none" xmlns="http://www.w3.org/2000/svg">
<path d="M19.4299 6.09751L22.1224 5.23751C24.6424 4.43251 27.3374 5.73501 28.4174 8.28001L30.5674 13.35C31.5049 15.5575 30.9849 18.155 29.2824 19.77L24.5499 24.265C24.8424 26.955 25.7449 29.6025 27.2599 32.2075C28.6994 34.728 30.63 36.934 32.9374 38.695L38.6274 36.795C40.7824 36.0775 43.1299 36.905 44.4524 38.8475L47.5324 43.3725C49.0724 45.6325 48.7949 48.7475 46.8874 50.6625L44.8424 52.715C42.8074 54.7575 39.9024 55.5 37.2124 54.66C30.8649 52.68 25.0299 46.8025 19.7049 37.0275C14.3724 27.2375 12.4924 18.9275 14.0599 12.1075C14.7199 9.23751 16.7649 6.95001 19.4349 6.09751" fill="white"/>
</svg>
